<svg width="217" height="146" viewBox="0 0 217 146" xmlns="http://www.w3.org/2000/svg"><g fill="none" fill-rule="evenodd"><path fill="#FFED00" d="M4 38h209v105H4z"/><path d="M213.851 0H3.15A3.147 3.147 0 0 0 0 3.149v138.773a3.149 3.149 0 0 0 3.149 3.148H213.85a3.15 3.15 0 0 0 3.149-3.148V3.149A3.15 3.15 0 0 0 213.851 0zM76.533 104.081V75.685h63.938v28.396H76.533zm63.936-63.09v28.396H76.533V40.991h63.936zm-70.233 0v28.396H6.298V40.991h63.938zm0 34.694v28.396H6.298V75.685h63.938zm6.297 34.694h63.938v28.394H76.533v-28.394zm70.234-6.298V75.685h63.935v28.396h-63.935zm0-34.694V40.991h63.935v28.396h-63.935zM6.297 110.38h63.939v28.394H6.298v-28.394zm140.47 28.396v-28.396h63.935v28.394h-63.935v.002z" fill="#000"/><path d="M0-36h217v217H0z"/></g></svg>